<svg xmlns="http://www.w3.org/2000/svg" enable-background="new 0 0 110 110" viewBox="0 0 110 110"><path d="M97.8,6.8H12.2c-3.3,0-5.9,2.7-5.9,5.9v44.6c0,3.3,2.7,5.9,5.9,5.9h36.1v36.9c0,1.7,1.4,3.2,3.2,3.2h5.5c1.7,0,3.2-1.4,3.2-3.2V63.2h37.8c3.3,0,5.9-2.7,5.9-5.9V12.7C103.7,9.4,101.1,6.8,97.8,6.8z M58.5,100.1c0,0.9-0.7,1.7-1.7,1.7h-5.5c-0.9,0-1.7-0.7-1.7-1.7V63.2h8.8V100.1z M102.2,57.3c0,2.4-2,4.4-4.4,4.4c-17.2,0-66.7,0-85.6,0c-2.4,0-4.4-2-4.4-4.4V12.7c0-2.4,2-4.4,4.4-4.4h85.6c2.4,0,4.4,2,4.4,4.4V57.3z"/><path d="M96,21.8c-4,0-7.2-3.2-7.2-7.2c0-0.4-0.3-0.8-0.8-0.8H22c-0.4,0-0.8,0.3-0.8,0.8c0,4-3.2,7.2-7.2,7.2c-0.4,0-0.8,0.3-0.8,0.8v25c0,0.4,0.3,0.8,0.8,0.8c4,0,7.2,3.2,7.2,7.2c0,0.4,0.3,0.8,0.8,0.8h66c0.4,0,0.8-0.3,0.8-0.8c0-4,3.2-7.2,7.2-7.2c0.4,0,0.8-0.3,0.8-0.8v-25C96.8,22.1,96.4,21.8,96,21.8z M95.2,46.8c-4.2,0.4-7.6,3.7-8,8H22.7c-0.4-4.2-3.7-7.6-8-8V23.2c4.2-0.4,7.6-3.7,8-8h64.6c0.4,4.2,3.7,7.6,8,8V46.8z"/></svg>