<svg xmlns="http://www.w3.org/2000/svg" viewBox="0 0 100 100"><path d="M85 5H15C9.5 5 5 9.5 5 15v70c0 5.5 4.5 10 10 10h70c5.5 0 10-4.5 10-10V15c0-5.5-4.5-10-10-10zM15 91c-3.3 0-6-2.7-6-6v-8.2l24-25.9L71.6 91H15zm76-6c0 3.3-2.7 6-6 6h-7.9L48.3 61l22.2-23.1L91 60v25zm0-30.9L72 33.6l-.1-.1c-.1 0-.1-.1-.2-.1 0 0-.1-.1-.2-.1s-.1-.1-.2-.1-.1 0-.2-.1h-1.2c-.1 0-.1 0-.2.1-.1 0-.1.1-.2.1s-.1.1-.2.1-.1.1-.2.1l-.1.1-23.5 24.5-11.1-11.5s-.1 0-.1-.1c-.1-.1-.1-.1-.2-.1 0 0-.1-.1-.2-.1s-.1-.1-.2-.1-.1 0-.2-.1h-1.2c-.1 0-.1 0-.2.1-.1 0-.1 0-.2.1-.1 0-.1.1-.2.1s-.1.1-.2.1c0 0-.1 0-.1.1L9 70.9V15c0-3.3 2.7-6 6-6h70c3.3 0 6 2.7 6 6v39.1zM27 17c-5.5 0-10 4.5-10 10s4.5 10 10 10 10-4.5 10-10-4.5-10-10-10zm0 16c-3.3 0-6-2.7-6-6s2.7-6 6-6 6 2.7 6 6-2.7 6-6 6z"/></svg>