<?xml version="1.0" encoding="iso-8859-1"?>
<!-- Generator: Adobe Illustrator 16.0.0, SVG Export Plug-In . SVG Version: 6.00 Build 0)  -->
<!DOCTYPE svg PUBLIC "-//W3C//DTD SVG 1.1//EN" "http://www.w3.org/Graphics/SVG/1.1/DTD/svg11.dtd">
<svg version="1.1" id="Capa_1" xmlns="http://www.w3.org/2000/svg" xmlns:xlink="http://www.w3.org/1999/xlink" x="0px" y="0px"
	 width="38.086px" height="38.086px" viewBox="0 0 38.086 38.086" style="enable-background:new 0 0 38.086 38.086;"
	 xml:space="preserve">
<g>
	<path d="M28.451,14.074C28.451,6.313,22.138,0,14.378,0C6.618,0,0.305,6.313,0.305,14.074c0,7.761,6.312,14.072,14.072,14.072
		C22.138,28.146,28.451,21.834,28.451,14.074z M14.378,24.613c-5.812,0-10.539-4.729-10.539-10.539
		c0-5.812,4.729-10.541,10.539-10.541c5.812,0,10.54,4.729,10.54,10.541C24.918,19.886,20.189,24.613,14.378,24.613z M37.781,34.975
		l-3.111,3.111L23.857,27.275l3.111-3.111L37.781,34.975z"/>
</g>
<g>
</g>
<g>
</g>
<g>
</g>
<g>
</g>
<g>
</g>
<g>
</g>
<g>
</g>
<g>
</g>
<g>
</g>
<g>
</g>
<g>
</g>
<g>
</g>
<g>
</g>
<g>
</g>
<g>
</g>
</svg>
